# xmcd
#
# Track frame offsets: 
#        150
#        17362
#        30324
#        43651
#        58391
#        74627
#        90687
#        108839
#        120970
#        137979
#        149386
#        164125
#        181428
#        199693
#        218553
#        236044
#        250400
#        267271
#
# Disc length: 3843 seconds
#
# Revision: 2
# Processed by: cddbd v1.5.2PL0 Copyright (c) Steve Scherf et al.
# Submitted via: ExactAudioCopy v0.99pb5
#
DISCID=0b0f0112
DTITLE=Chely Wright - The Definitive Collection
DYEAR=2007
DGENRE=Country
TTITLE0=Shut Up And Drive
TTITLE1=He's A Good Ole Boy
TTITLE2=Till I Was Loved By You
TTITLE3=I Love You Enough To Let You Go
TTITLE4=Sea Of Cowboy Hats
TTITLE5=Listenin' To The Radio
TTITLE6=The Love That We Lost
TTITLE7=Just Another Heartache
TTITLE8=I Already Do
TTITLE9=Feelin' Single And Seein' Double
TTITLE10=Single White Female
TTITLE11=It Was
TTITLE12=Picket Fences
TTITLE13=She Went Out For Cigarettes
TTITLE14=Never Love You Enough
TTITLE15=Jezebel
TTITLE16=Back Of The Bottom Drawer
TTITLE17=The Bumper Of My S.U.V.
EXTD=YEAR: 2007
EXTT0=
EXTT1=
EXTT2=
EXTT3=
EXTT4=
EXTT5=
EXTT6=
EXTT7=
EXTT8=
EXTT9=
EXTT10=
EXTT11=
EXTT12=
EXTT13=
EXTT14=
EXTT15=
EXTT16=
EXTT17=
PLAYORDER=
